<?xml version="1.0" encoding="UTF-8"?>
<svg id="Layer_1" data-name="Layer 1" xmlns="http://www.w3.org/2000/svg" xmlns:xlink="http://www.w3.org/1999/xlink" viewBox="0 0 264.7523 64.2666">
  <g id="type">
    <a xlink:href="100">
      <path id="type__PathItem_" data-name="type &amp;lt;PathItem&amp;gt;" d="M264.7523,43.4881l-16.952-7.1512,2.2178,5.2202H55.4981c-5.6764-1.753-26.6196-8.0534-34.4199-8.0534-7.0373,0-9.2145,5.5629-9.8392,8.0533H0v.9413l5.0077,.6815v.5701L0,44.5049v.9144H11.2563c.6484,2.5241,2.8514,7.9836,9.8218,7.9836,7.6977,0,28.1999-6.1373,34.1937-7.9836H250.0179l-2.2177,5.22,16.952-7.1512Z" style="fill: #fff;"/>
    </a>
    <path id="type__CompoundPathItem_" data-name="type &amp;lt;CompoundPathItem&amp;gt;" d="M59.7091,36.6596v-7.3323h2.2003l4.7131-21.995h-2.1471V0h19.429V7.3323h-2.1993l4.4509,21.995h2.1471v7.3323h-8.7972l-1.3101-7.3323h-12.3589c2.1993,0,3.6662,1.7803,3.2994,3.9284l-.6289,3.4039h-8.7982Zm17.2297-14.6646l-2.566-14.6627h-.3667l-2.775,14.6627h5.7077Z" style="fill: #fff;"/>
    <path id="type__CompoundPathItem_-2" data-name="type &amp;lt;CompoundPathItem&amp;gt;" d="M93.021,31.8933v-5.132l8.0648-1.8326v4.3986h5.8655v-6.2312l-10.9975-4.6618c-1.7803-.7334-2.9327-2.4615-2.9327-4.3464V4.7663c0-2.6183,2.1471-4.7663,4.7653-4.7663h12.4644c2.6183,0,4.7653,2.148,4.7653,4.7663v5.132l-8.0648,1.8326V7.3323h-9.8974c2.2516,0,4.0319,1.7803,4.0319,4.0329v1.0992l10.9985,4.6618c1.7803,.7334,2.9318,2.4615,2.9318,4.3464v10.4208c0,2.6183-2.1471,4.7663-4.7653,4.7663h-12.4644c-2.6183,0-4.7653-2.148-4.7653-4.7663Z" style="fill: #fff;"/>
    <path id="type__CompoundPathItem_-3" data-name="type &amp;lt;CompoundPathItem&amp;gt;" d="M121.3052,31.8933V4.7663c0-2.6183,2.1471-4.7663,4.7653-4.7663h13.1978c2.6183,0,4.7644,2.148,4.7644,4.7663v7.3323l-8.0638,1.8326V7.3323h-10.6308c2.2516,0,4.0319,1.7803,4.0319,4.0329V29.3273h6.5989v-6.5989l8.0638-1.8326v10.9975c0,2.6183-2.1461,4.7663-4.7644,4.7663h-13.1978c-2.6183,0-4.7653-2.148-4.7653-4.7663Z" style="fill: #fff;"/>
    <path id="type__CompoundPathItem_-4" data-name="type &amp;lt;CompoundPathItem&amp;gt;" d="M150.322,36.6596v-7.3323h2.2003V7.3323h-2.2003V0h22.7284V8.7992h-8.0638v-1.4669h-8.4315c2.2506,0,4.0309,1.7803,4.0309,4.0329v3.2994h8.327l-1.6758,7.3304h-6.6511v7.3323h4.4006v-1.4649h8.0638v8.7972h-22.7284Z" style="fill: #fff;"/>
    <path id="type__CompoundPathItem_-5" data-name="type &amp;lt;CompoundPathItem&amp;gt;" d="M189.6037,15.7638v13.5635h2.2003v7.3323h-12.4644v-7.3323h2.1983V7.3323h-2.1983V0h10.9975l8.7972,20.8958V7.3323h-2.1983V0h12.4644V7.3323h-2.2003v29.3273h-8.7992l-8.7972-20.8958Z" style="fill: #fff;"/>
    <path id="type__CompoundPathItem_-6" data-name="type &amp;lt;CompoundPathItem&amp;gt;" d="M221.9731,29.3273h2.2003V7.3323h-1.4669v1.4669h-8.0657V0h27.129V8.7992h-8.0657v-1.4669h-5.4978c2.2506,0,4.0309,1.7803,4.0309,4.0329V29.3273h2.2003v7.3323h-12.4644v-7.3323Z" style="fill: #fff;"/>
    <path id="type__CompoundPathItem_-7" data-name="type &amp;lt;CompoundPathItem&amp;gt;" d="M151.3031,64.2666v-2.8311h.8495l1.821-8.4973h-.8282v-2.8311h7.5045v2.8311h-.8495l1.7184,8.4973h.8302v2.8311h-3.3981l-.507-2.8311h-4.774c.8495,0,1.4165,.687,1.2753,1.5172l-.2438,1.314h-3.3981Zm6.655-5.6642l-.9908-5.6642h-.1413l-1.0721,5.6642h2.2041Z" style="fill: #fff;"/>
    <path id="type__CompoundPathItem_-8" data-name="type &amp;lt;CompoundPathItem&amp;gt;" d="M169.9851,60.3015h-1.8597v1.134h.8495v2.8311h-4.8147v-2.8311h.8495v-8.4973h-.8495v-2.8311h8.2128c1.0102,0,1.8403,.8282,1.8403,1.8403v6.5331c0,.7083-.4044,1.3565-1.0508,1.6391l.3232,1.3159h.8689v2.8311h-3.3381l-1.0314-3.9651Zm1.1127-2.8311v-4.5321h-4.5302c.8689,0,1.5578,.6889,1.5578,1.5578v2.9743h2.9724Z" style="fill: #fff;"/>
    <path id="type__CompoundPathItem_-9" data-name="type &amp;lt;CompoundPathItem&amp;gt;" d="M176.7736,62.4263v-10.4789c0-1.0121,.8302-1.8403,1.8423-1.8403h5.0972c1.0102,0,1.8403,.8282,1.8403,1.8403v2.8311l-3.1156,.7083v-2.5486h-4.1064c.8708,0,1.5578,.6889,1.5578,1.5578v6.9395h2.5486v-2.5505l3.1156-.7063v4.2477c0,1.0102-.8302,1.8403-1.8403,1.8403h-5.0972c-1.0121,0-1.8423-.8302-1.8423-1.8403Z" style="fill: #fff;"/>
    <path id="type__CompoundPathItem_-10" data-name="type &amp;lt;CompoundPathItem&amp;gt;" d="M187.9724,61.4355h.8495v-8.4973h-.8495v-2.8311h4.8147v2.8311h-.8495v2.8331h3.2569v-2.8331h-.8495v-2.8311h4.8127v2.8311h-.8495v8.4973h.8495v2.8311h-3.9632v-5.6642h-4.8147c.8689,0,1.5578,.6889,1.5578,1.5578v1.2753h.8495v2.8311h-4.8147v-2.8311Z" style="fill: #fff;"/>
    <path id="type__CompoundPathItem_-11" data-name="type &amp;lt;CompoundPathItem&amp;gt;" d="M201.5766,64.2666v-2.8311h.8495v-8.4973h-.8495v-2.8311h8.7798v3.3981h-3.1156v-.567h-3.2569c.8689,0,1.5578,.6889,1.5578,1.5578v1.2753h3.2162l-.6483,2.8311h-2.568v2.8331h1.6991v-.567h3.1156v3.3981h-8.7798Z" style="fill: #fff;"/>
    <path id="type__CompoundPathItem_-12" data-name="type &amp;lt;CompoundPathItem&amp;gt;" d="M218.6002,60.3015h-1.8597v1.134h.8495v2.8311h-4.8147v-2.8311h.8495v-8.4973h-.8495v-2.8311h8.2128c1.0102,0,1.8403,.8282,1.8403,1.8403v6.5331c0,.7083-.4044,1.3565-1.0508,1.6391l.3232,1.3159h.8689v2.8311h-3.3381l-1.0314-3.9651Zm1.1127-2.8311v-4.5321h-4.5302c.8689,0,1.5578,.6889,1.5578,1.5578v2.9743h2.9724Z" style="fill: #fff;"/>
    <path id="type__CompoundPathItem_-13" data-name="type &amp;lt;CompoundPathItem&amp;gt;" d="M227.6141,61.4355h.8495v-1.8423l-2.8931-6.655h-.7876v-2.8311h4.5302v2.8311h-.5051l1.2133,3.1156,1.2133-3.1156h-.5051v-2.8311h4.5302v2.8311h-.7876l-2.8931,6.655v1.8423h.8495v2.8311h-4.8147v-2.8311Z" style="fill: #fff;"/>
  </g>
</svg>