<?xml version="1.0" encoding="UTF-8"?>
<svg id="Layer_1" data-name="Layer 1" xmlns="http://www.w3.org/2000/svg" xmlns:xlink="http://www.w3.org/1999/xlink" viewBox="0 0 277.9197 161.6051">
  <g id="type">
    <a xlink:href="100">
      <path id="type__PathItem_" data-name="type &amp;lt;PathItem&amp;gt;" d="M271.3359,140.8266l-16.952-7.1512,2.2178,5.2202H62.0818c-5.6764-1.753-26.6196-8.0534-34.4199-8.0534-7.0373,0-9.2145,5.5629-9.8392,8.0533H6.5837v.9413l5.0077,.6815v.5701l-5.0077,.7549v.9144h11.2563c.6484,2.5241,2.8514,7.9836,9.8218,7.9836,7.6977,0,28.1999-6.1373,34.1937-7.9836h194.7461l-2.2177,5.22,16.952-7.1512Z" style="fill: #fff;"/>
    </a>
    <path id="type__CompoundPathItem_" data-name="type &amp;lt;CompoundPathItem&amp;gt;" d="M66.2928,133.9981v-7.3323h2.2003l4.7131-21.995h-2.1471v-7.3323h19.429v7.3323h-2.1993l4.4509,21.995h2.1471v7.3323h-8.7972l-1.3101-7.3323h-12.3589c2.1993,0,3.6662,1.7803,3.2994,3.9284l-.6289,3.4039h-8.7982Zm17.2297-14.6646l-2.566-14.6627h-.3667l-2.775,14.6627h5.7077Z" style="fill: #fff;"/>
    <path id="type__CompoundPathItem_-2" data-name="type &amp;lt;CompoundPathItem&amp;gt;" d="M99.6046,129.2318v-5.132l8.0648-1.8326v4.3986h5.8655v-6.2312l-10.9975-4.6618c-1.7803-.7334-2.9327-2.4615-2.9327-4.3464v-9.3217c0-2.6183,2.1471-4.7663,4.7653-4.7663h12.4644c2.6183,0,4.7653,2.148,4.7653,4.7663v5.132l-8.0648,1.8326v-4.3986h-9.8974c2.2516,0,4.0319,1.7803,4.0319,4.0329v1.0992l10.9985,4.6618c1.7803,.7334,2.9318,2.4615,2.9318,4.3464v10.4208c0,2.6183-2.1471,4.7663-4.7653,4.7663h-12.4644c-2.6183,0-4.7653-2.148-4.7653-4.7663Z" style="fill: #fff;"/>
    <path id="type__CompoundPathItem_-3" data-name="type &amp;lt;CompoundPathItem&amp;gt;" d="M127.8889,129.2318v-27.1271c0-2.6183,2.1471-4.7663,4.7653-4.7663h13.1978c2.6183,0,4.7644,2.148,4.7644,4.7663v7.3323l-8.0638,1.8326v-6.5989h-10.6308c2.2516,0,4.0319,1.7803,4.0319,4.0329v17.9621h6.5989v-6.5989l8.0638-1.8326v10.9975c0,2.6183-2.1461,4.7663-4.7644,4.7663h-13.1978c-2.6183,0-4.7653-2.148-4.7653-4.7663Z" style="fill: #fff;"/>
    <path id="type__CompoundPathItem_-4" data-name="type &amp;lt;CompoundPathItem&amp;gt;" d="M156.9056,133.9981v-7.3323h2.2003v-21.995h-2.2003v-7.3323h22.7284v8.7992h-8.0638v-1.4669h-8.4315c2.2506,0,4.0309,1.7803,4.0309,4.0329v3.2994h8.327l-1.6758,7.3304h-6.6511v7.3323h4.4006v-1.4649h8.0638v8.7972h-22.7284Z" style="fill: #fff;"/>
    <path id="type__CompoundPathItem_-5" data-name="type &amp;lt;CompoundPathItem&amp;gt;" d="M196.1874,113.1023v13.5635h2.2003v7.3323h-12.4644v-7.3323h2.1983v-21.995h-2.1983v-7.3323h10.9975l8.7972,20.8958v-13.5635h-2.1983v-7.3323h12.4644v7.3323h-2.2003v29.3273h-8.7992l-8.7972-20.8958Z" style="fill: #fff;"/>
    <path id="type__CompoundPathItem_-6" data-name="type &amp;lt;CompoundPathItem&amp;gt;" d="M228.5568,126.6658h2.2003v-21.995h-1.4669v1.4669h-8.0657v-8.7992h27.129v8.7992h-8.0657v-1.4669h-5.4978c2.2506,0,4.0309,1.7803,4.0309,4.0329v17.9621h2.2003v7.3323h-12.4644v-7.3323Z" style="fill: #fff;"/>
    <path id="type__CompoundPathItem_-7" data-name="type &amp;lt;CompoundPathItem&amp;gt;" d="M157.8868,161.6051v-2.8311h.8495l1.821-8.4973h-.8282v-2.8311h7.5045v2.8311h-.8495l1.7184,8.4973h.8302v2.8311h-3.3981l-.507-2.8311h-4.774c.8495,0,1.4165,.687,1.2753,1.5172l-.2438,1.314h-3.3981Zm6.655-5.6642l-.9908-5.6642h-.1413l-1.0721,5.6642h2.2041Z" style="fill: #fff;"/>
    <path id="type__CompoundPathItem_-8" data-name="type &amp;lt;CompoundPathItem&amp;gt;" d="M176.5688,157.64h-1.8597v1.134h.8495v2.8311h-4.8147v-2.8311h.8495v-8.4973h-.8495v-2.8311h8.2128c1.0102,0,1.8403,.8282,1.8403,1.8403v6.5331c0,.7083-.4044,1.3565-1.0508,1.6391l.3232,1.3159h.8689v2.8311h-3.3381l-1.0314-3.9651Zm1.1127-2.8311v-4.5321h-4.5302c.8689,0,1.5578,.6889,1.5578,1.5578v2.9743h2.9724Z" style="fill: #fff;"/>
    <path id="type__CompoundPathItem_-9" data-name="type &amp;lt;CompoundPathItem&amp;gt;" d="M183.3573,159.7648v-10.4789c0-1.0121,.8302-1.8403,1.8423-1.8403h5.0972c1.0102,0,1.8403,.8282,1.8403,1.8403v2.8311l-3.1156,.7083v-2.5486h-4.1064c.8708,0,1.5578,.6889,1.5578,1.5578v6.9395h2.5486v-2.5505l3.1156-.7063v4.2477c0,1.0102-.8302,1.8403-1.8403,1.8403h-5.0972c-1.0121,0-1.8423-.8302-1.8423-1.8403Z" style="fill: #fff;"/>
    <path id="type__CompoundPathItem_-10" data-name="type &amp;lt;CompoundPathItem&amp;gt;" d="M194.5561,158.774h.8495v-8.4973h-.8495v-2.8311h4.8147v2.8311h-.8495v2.8331h3.2569v-2.8331h-.8495v-2.8311h4.8127v2.8311h-.8495v8.4973h.8495v2.8311h-3.9632v-5.6642h-4.8147c.8689,0,1.5578,.6889,1.5578,1.5578v1.2753h.8495v2.8311h-4.8147v-2.8311Z" style="fill: #fff;"/>
    <path id="type__CompoundPathItem_-11" data-name="type &amp;lt;CompoundPathItem&amp;gt;" d="M208.1602,161.6051v-2.8311h.8495v-8.4973h-.8495v-2.8311h8.7798v3.3981h-3.1156v-.567h-3.2569c.8689,0,1.5578,.6889,1.5578,1.5578v1.2753h3.2162l-.6483,2.8311h-2.568v2.8331h1.6991v-.567h3.1156v3.3981h-8.7798Z" style="fill: #fff;"/>
    <path id="type__CompoundPathItem_-12" data-name="type &amp;lt;CompoundPathItem&amp;gt;" d="M225.1838,157.64h-1.8597v1.134h.8495v2.8311h-4.8147v-2.8311h.8495v-8.4973h-.8495v-2.8311h8.2128c1.0102,0,1.8403,.8282,1.8403,1.8403v6.5331c0,.7083-.4044,1.3565-1.0508,1.6391l.3232,1.3159h.8689v2.8311h-3.3381l-1.0314-3.9651Zm1.1127-2.8311v-4.5321h-4.5302c.8689,0,1.5578,.6889,1.5578,1.5578v2.9743h2.9724Z" style="fill: #fff;"/>
    <path id="type__CompoundPathItem_-13" data-name="type &amp;lt;CompoundPathItem&amp;gt;" d="M234.1978,158.774h.8495v-1.8423l-2.8931-6.655h-.7876v-2.8311h4.5302v2.8311h-.5051l1.2133,3.1156,1.2133-3.1156h-.5051v-2.8311h4.5302v2.8311h-.7876l-2.8931,6.655v1.8423h.8495v2.8311h-4.8147v-2.8311Z" style="fill: #fff;"/>
  </g>
  <path d="M277.8292,89.696c-.2854-2.1827-7.3054-8.9935-8.7971-9.6026-1.2655-.5168-2.0251-1.3817-2.8298-2.2972-.8353-.951-1.7001-1.9346-3.1522-2.6176-5.929-2.7864-10.7628-2.8779-14.647-2.951-2.9218-.0551-5.2288-.0986-7.2362-1.174-7.6383-4.0919-10.7177-4.8879-17.4635-6.6317-1.2189-.3148-2.5585-.6614-4.0693-1.0645-1.9431-.5186-4.4338-1.5164-5.3093-2.4816-.513-.566-1.4626-1.3641-2.3805-2.1357-.7546-.6342-1.5355-1.2902-1.9453-1.7145-2.6686-2.7623-10.0106-2.2338-13.829-.4738-.2883,.1329-.5614,.2709-.806,.4169-.1638,.0978-.3223,.1862-.4853,.2826-13.3344,7.8887-24.0647,11.0764-34.7108,10.3015-3.605-.2611-7.0765-1.8064-10.4336-3.3005-.9426-.4197-1.8831-.8381-2.825-1.2295l-13.4334-5.5819-1.1715-.4868-11.9626-4.9708c-2.6236-1.0903-5.3365-2.2177-8.2548-2.6172-5.4546-.7479-10.8339,1.1454-15.58,2.8147l-37.7495,13.2805c-.5536,.195-1.1326,.4091-1.729,.6302-3.067,1.1356-6.5452,2.423-9.4139,2.0965-1.9908-.2265-3.6817-1.1475-5.4719-2.1226-1.8315-.9977-3.7259-2.0297-5.9951-2.2894-6.8381-.779-15.2003,5.1578-22.5736,10.3993-4.0279,2.8635-7.8326,5.5679-10.9009,6.8391-.0272,.0114-2.7172,1.5012-2.6727,2.3741l.0399,.5258,.489,.1465c3.5838,1.0744,8.2247-.1854,12.3187-1.2976,3.2164-.8745,6.2545-1.699,7.6835-1.0444,.4653,.2134,.9288,.4374,1.3927,.6617,1.817,.879,3.6958,1.788,5.7682,2.0809,2.0622,.2903,4.3555,.1279,7.0129-.4996,9.3144-2.1982,13.4727-.6699,19.2275,1.4464,.637,.2343,1.2917,.4749,1.9728,.718l.2325,.083c1.954,.6981,4.6306,1.6541,6.7228,1.7435,2.3491,.0961,4.1046-.7769,5.9584-1.7068,.637-.3194,1.2955-.6501,1.9947-.9468,11.2479-4.7776,22.9045-4.9179,31.9811-.3844,.5493,.2745,1.0856,.5455,1.6128,.8119,3.8842,1.9633,7.2391,3.6588,11.6814,4.6356,4.1406,.9108,8.4922,.5179,12.6992,.1392,3.6224-.3257,7.3687-.6628,10.8834-.1442,1.5559,.2304,3.1252,.6996,4.6426,1.1539,2.2236,.6657,4.5222,1.3539,6.924,1.3539h.0318c3.8771-.0099,7.3585-1.7834,10.7254-3.4994,1.4887-.7585,3.0284-1.5428,4.5652-2.1519,11.9697-4.7451,25.7377,.3865,35.0534,4.6586,2.8822,1.3213,6.0626,2.7805,9.2804,2.7805,.9207,0,1.8449-.1194,2.7656-.3958,.7604-.2289,1.4726-.556,2.1616-.8726,.7468-.3434,1.452-.6671,2.1925-.8627,2.0548-.5419,6.5402-.0325,9.5073,.3066,.8768,.0997,1.6619,.1887,2.283,.2424,3.605,.3123,5.0267-1.2019,6.6688-2.9539,1.4118-1.5061,3.1656-3.3772,7.0157-4.7762,2.3063-.1325,6.4364,.915,11.2003,2.1279,7.1967,1.8333,16.1562,4.1141,22.5425,3.0352l.6875-.1166-.0905-.691ZM37.4195,71.2245c-3.3411-1.2935-7.038-2.9176-10.3495-1.55-1.5673,.6472-2.7988,1.8907-4.2034,2.8403-1.0209,.6902-3.865,1.5496-5.6252,.8409,6.408-4.4788,13.2667-8.7681,18.7417-8.1418,1.9894,.2275,3.6788,1.1479,5.4676,2.1223,1.8333,.9987,3.7291,2.0311,6.0007,2.2897,.0313,.0036,.0641,.0015,.0955,.0047,3.5133,1.6969,6.9876,3.4698,10.3514,5.4445-6.985-.0164-13.965-1.3288-20.4788-3.8506Zm137.9514,7.5991c-8.2559-.8929-15.5387-6.8967-23.84-6.6863,1.8636,4.416,9.1505,6.5219,14.058,8.3079,.5877,.2139,.5625,.5009,.5734,1.1262,.0074,.4272-1.2126,.741-2.4252,.8757-3.9745,.3369-7.2479,.1206-10.8287-1.343-.8984-.3672-1.7744-.8073-2.5433-1.3997-.8248-.6354-1.5087-1.4316-2.2-2.2101-5.0034-5.6345-10.8835-10.7418-17.946-13.3694-1.2414-.4619-2.6317-.9571-3.5747-1.8163-.8132-.741-1.9994-.8704-3.0244-.4709-4.7145,1.8372-10.0544,1.7869-15.2012,1.5895-.3782-.0145-.5906-.4469-.3702-.7546,1.3628-1.9028,3.3602-3.3418,5.5861-4.0649,1.1157-.3625,1.281-1.9152,.2437-2.4631-.8973-.4739-1.9092-.7367-2.921-.7462-.8026-.0076-1.3872-.7574-1.1959-1.5369,.2728-1.1114,.5778-2.2603,1.1117-3.1665,.3394,.0249,.6787,.0586,1.0176,.1049,2.7324,.3741,5.3574,1.4651,7.8958,2.5197l26.5676,11.0394c.9313,.3869,1.8605,.801,2.7925,1.2153,2.925,1.3023,5.9365,2.6321,9.1204,3.1884,.6873,.7499,1.2947,1.5732,1.9944,2.3129,1.8741,1.9814,4.4551,3.2799,7.1631,3.6039,1.672,.2001,3.3486,.2701,5.0113,.5375,6.9847,1.1232,11.2062,2.201,2.9352,3.6066Zm87.1808,3.3706c-.6176-1.0581-8.1366-5.7022-8.9974-6.574-.1787-.181-1.124-.5052-1.4124-.6954-.4797-.3163-.2372,.2478-2.6624,.4274-5.8196,.4312-9.9938-1.7261-15.8279-1.5952-4.7704,.1071-15.0473-5.4143-13.0041,3.212,1.9898,3.3102,2.9229,6.4919,4.4396,10.0425,.1429,.3345-.2216,.6573-.5339,.4708-1.4867-.8875-3.1935-1.4117-4.8174-2.0516-4.7821-1.8844-9.0991-4.9367-12.4701-8.8169-.797-.9175-1.6107-1.9282-2.7701-2.2927-.7244-.2277-1.5928-.2133-2.1023-.7764-.625-.6907-.3215-1.8157-.7111-2.6618-.6226-1.3517-2.7835-1.5908-3.1289-3.0383-.2366-.9916,.5508-1.9129,.788-2.9044,.1489-.6227,.0847-1.3076,.3909-1.8698,.8735-1.6039,3.6211-.7236,4.7922,.2235,.8392,.6786,2.0082,.8719,3.0043,.4568,2.3972-.9991,.8737-4.2067-1.1894-5.0879-1.4789-.6317-4.058-.6572-4.998-1.9937,3.0173-.37,6.2334-.0703,7.6178,1.3618,.4614,.478,1.2351,1.1284,2.054,1.817,.8812,.7405,1.7927,1.5065,2.2399,2,1.4852,1.6379,5.2655,2.7094,6.0082,2.9077,1.5142,.4042,2.8582,.7515,4.0798,1.0673,6.6314,1.7139,9.6577,2.4964,17.142,6.506,2.3148,1.2404,4.8995,1.2892,7.8926,1.3453,3.9414,.0746,8.4092,.1586,14.0584,2.814,1.18,.5547,1.9092,1.3846,2.6815,2.2632,.879,1.0009,1.7891,2.0357,3.3698,2.6815,.5722,.2335,1.9451,1.4362,3.3892,2.8742,.9752,1.4412,4.607,4.3812,5.0406,5.5473-3.8354-2.1185-10.2261-.5722-14.3632-7.6604Z" style="fill: #fff;"/>
  <a xlink:href="71.9654901960784">
    <path id="logoMark__PathItem_" data-name="logoMark &amp;lt;PathItem&amp;gt;" d="M163.599,56.1402c-10.4279,0-18.8831-8.4553-18.8831-18.8831s8.4553-18.8846,18.8831-18.8846c8.2726,0,15.2983,5.3222,17.8522,12.7274l17.4232-7.4263-.1328-.3293C192.9977,9.1631,179.3993,0,164.098,0c-20.6007,0-37.3608,16.7597-37.3608,37.3604,0,7.1815,2.0413,13.893,5.5673,19.5937l1.1715,.4868,13.4334,5.5819c.9419,.3915,1.8824,.8098,2.825,1.2295,3.357,1.4941,6.8285,3.0394,10.4336,3.3005,10.6461,.7749,21.3764-2.4128,34.7108-10.3015,.163-.0965,.3215-.1848,.4853-.2826,.2445-.146,.5176-.2841,.8059-.4169,.949-1.5912,1.7894-3.2674,2.5087-5.021l.1385-.3378-17.6332-7.0542c-2.7518,7.0239-9.5852,12.0014-17.585,12.0014Z" style="fill: #fff;"/>
  </a>
</svg>