<?xml version="1.0" encoding="UTF-8"?>
<svg id="Layer_1" data-name="Layer 1" xmlns="http://www.w3.org/2000/svg" xmlns:xlink="http://www.w3.org/1999/xlink" viewBox="0 0 277.9197 94.6528">
  <path d="M277.8291,89.696c-.2854-2.1827-7.3054-8.9935-8.797-9.6026-1.2655-.5168-2.025-1.3817-2.8298-2.2972-.8353-.951-1.7001-1.9346-3.1522-2.6176-5.929-2.7864-10.7627-2.8779-14.647-2.951-2.9216-.0551-5.2288-.0986-7.2361-1.174-7.6384-4.0919-10.7178-4.8879-17.4636-6.6317-1.2188-.3148-2.5585-.6614-4.0692-1.0645-1.9431-.5186-4.4338-1.5164-5.3093-2.4816-.5131-.566-1.4626-1.3641-2.3805-2.1357-.7546-.6342-1.5354-1.2902-1.9453-1.7145-2.6687-2.7623-10.0105-2.2338-13.829-.4738-.2883,.1329-.5614,.2709-.806,.4169-.1637,.0978-.3223,.1862-.4852,.2826-13.3344,7.8887-24.0647,11.0764-34.7108,10.3015-3.605-.2611-7.0765-1.8064-10.4336-3.3005-.9426-.4197-1.8831-.8381-2.825-1.2295l-13.4333-5.5819-1.1716-.4868-11.9625-4.9708c-2.6237-1.0903-5.3365-2.2177-8.2548-2.6172-5.4546-.7479-10.834,1.1454-15.5801,2.8147l-37.7495,13.2805c-.5535,.195-1.1326,.4091-1.729,.6302-3.0669,1.1356-6.5452,2.423-9.4138,2.0965-1.991-.2265-3.6818-1.1475-5.4719-2.1226-1.8315-.9977-3.7258-2.0297-5.9951-2.2894-6.8381-.779-15.2002,5.1578-22.5735,10.3993-4.028,2.8635-7.8326,5.5679-10.901,6.8391-.0272,.0114-2.7172,1.5012-2.6727,2.3741l.0399,.5258,.489,.1465c3.5838,1.0744,8.2247-.1854,12.3187-1.2976,3.2164-.8745,6.2544-1.699,7.6836-1.0444,.4652,.2134,.9287,.4374,1.3926,.6617,1.8171,.879,3.6958,1.788,5.7683,2.0809,2.0623,.2903,4.3555,.1279,7.0129-.4996,9.3143-2.1982,13.4727-.6699,19.2275,1.4464,.637,.2343,1.2916,.4749,1.9728,.718l.2325,.083c1.954,.6981,4.6306,1.6541,6.7228,1.7435,2.349,.0961,4.1046-.7769,5.9584-1.7068,.637-.3194,1.2954-.6501,1.9946-.9468,11.248-4.7776,22.9045-4.9179,31.9812-.3844,.5493,.2745,1.0857,.5455,1.6128,.8119,3.8842,1.9633,7.239,3.6588,11.6814,4.6356,4.1406,.9108,8.4922,.5179,12.6992,.1392,3.6223-.3257,7.3687-.6628,10.8833-.1442,1.5559,.2304,3.1252,.6996,4.6427,1.1539,2.2236,.6657,4.5222,1.3539,6.924,1.3539h.0317c3.8772-.0099,7.3585-1.7834,10.7255-3.4994,1.4886-.7585,3.0284-1.5428,4.5653-2.1519,11.9696-4.7451,25.7375,.3865,35.0533,4.6586,2.8822,1.3213,6.0626,2.7805,9.2804,2.7805,.9207,0,1.845-.1194,2.7656-.3958,.7603-.2289,1.4725-.556,2.1615-.8726,.7468-.3434,1.452-.6671,2.1925-.8627,2.0548-.5419,6.5403-.0325,9.5073,.3066,.8767,.0997,1.6619,.1887,2.283,.2424,3.605,.3123,5.0266-1.2019,6.6687-2.9539,1.4119-1.5061,3.1656-3.3772,7.0159-4.7762,2.3063-.1325,6.4363,.915,11.2002,2.1279,7.1967,1.8333,16.1562,4.1141,22.5425,3.0352l.6875-.1166-.0906-.691ZM37.4194,71.2245c-3.3411-1.2935-7.038-2.9176-10.3494-1.55-1.5674,.6472-2.7988,1.8907-4.2034,2.8403-1.021,.6902-3.865,1.5496-5.6252,.8409,6.408-4.4788,13.2666-8.7681,18.7417-8.1418,1.9893,.2275,3.6787,1.1479,5.4675,2.1223,1.8333,.9987,3.729,2.0311,6.0007,2.2897,.0312,.0036,.0641,.0015,.0955,.0047,3.5133,1.6969,6.9875,3.4698,10.3514,5.4445-6.985-.0164-13.965-1.3288-20.4789-3.8506Zm137.9514,7.5991c-8.2559-.8929-15.5386-6.8967-23.84-6.6863,1.8636,4.416,9.1505,6.5219,14.058,8.3079,.5876,.2139,.5625,.5009,.5734,1.1262,.0074,.4272-1.2126,.741-2.4252,.8757-3.9745,.3369-7.2478,.1206-10.8286-1.343-.8984-.3672-1.7744-.8073-2.5433-1.3997-.8248-.6354-1.5087-1.4316-2.2001-2.2101-5.0034-5.6345-10.8835-10.7418-17.9459-13.3694-1.2413-.4619-2.6317-.9571-3.5748-1.8163-.813-.741-1.9993-.8704-3.0243-.4709-4.7145,1.8372-10.0544,1.7869-15.2013,1.5895-.3782-.0145-.5906-.4469-.3701-.7546,1.3628-1.9028,3.3601-3.3418,5.5861-4.0649,1.1156-.3625,1.281-1.9152,.2435-2.4631-.8972-.4739-1.9091-.7367-2.9209-.7462-.8025-.0076-1.3872-.7574-1.1959-1.5369,.2728-1.1114,.5779-2.2603,1.1117-3.1665,.3395,.0249,.6787,.0586,1.0176,.1049,2.7324,.3741,5.3574,1.4651,7.8959,2.5197l26.5675,11.0394c.9314,.3869,1.8606,.801,2.7925,1.2153,2.925,1.3023,5.9365,2.6321,9.1205,3.1884,.6873,.7499,1.2948,1.5732,1.9944,2.3129,1.8741,1.9814,4.4551,3.2799,7.1631,3.6039,1.672,.2001,3.3486,.2701,5.0114,.5375,6.9846,1.1232,11.2061,2.201,2.9351,3.6066Zm87.1809,3.3706c-.6176-1.0581-8.1366-5.7022-8.9973-6.574-.1787-.181-1.124-.5052-1.4125-.6954-.4796-.3163-.2372,.2478-2.6624,.4274-5.8197,.4312-9.9938-1.7261-15.828-1.5952-4.7703,.1071-15.0472-5.4143-13.004,3.212,1.9899,3.3102,2.923,6.4919,4.4396,10.0425,.1429,.3345-.2216,.6573-.5339,.4708-1.4866-.8875-3.1934-1.4117-4.8174-2.0516-4.782-1.8844-9.0991-4.9367-12.47-8.8169-.7971-.9175-1.6107-1.9282-2.7703-2.2927-.7244-.2277-1.5928-.2133-2.1023-.7764-.625-.6907-.3214-1.8157-.7111-2.6618-.6227-1.3517-2.7836-1.5908-3.1289-3.0383-.2366-.9916,.5508-1.9129,.788-2.9044,.1489-.6227,.0847-1.3076,.3909-1.8698,.8735-1.6039,3.6211-.7236,4.7922,.2235,.8391,.6786,2.0081,.8719,3.0042,.4568,2.3972-.9991,.8738-4.2067-1.1893-5.0879-1.4789-.6317-4.0581-.6572-4.998-1.9937,3.0172-.37,6.2334-.0703,7.6178,1.3618,.4614,.478,1.2351,1.1284,2.054,1.817,.8812,.7405,1.7927,1.5065,2.24,2,1.4852,1.6379,5.2655,2.7094,6.0082,2.9077,1.5143,.4042,2.8582,.7515,4.0798,1.0673,6.6315,1.7139,9.6577,2.4964,17.142,6.506,2.3148,1.2404,4.8995,1.2892,7.8926,1.3453,3.9414,.0746,8.4092,.1586,14.0585,2.814,1.1801,.5547,1.9092,1.3846,2.6815,2.2632,.879,1.0009,1.7891,2.0357,3.3698,2.6815,.5721,.2335,1.9452,1.4362,3.3892,2.8742,.9752,1.4412,4.6071,4.3812,5.0406,5.5473-3.8354-2.1185-10.2262-.5722-14.3633-7.6604Z" style="fill: #fff;"/>
  <a xlink:href="71.9654901960784">
    <path id="logoMark__PathItem_" data-name="logoMark &amp;lt;PathItem&amp;gt;" d="M163.599,56.1402c-10.4279,0-18.8831-8.4553-18.8831-18.8831s8.4553-18.8846,18.8831-18.8846c8.2726,0,15.2983,5.3222,17.8522,12.7274l17.4232-7.4263-.1328-.3293C192.9977,9.1631,179.3993,0,164.098,0c-20.6007,0-37.3608,16.7597-37.3608,37.3604,0,7.1815,2.0413,13.893,5.5673,19.5937l1.1715,.4868,13.4334,5.5819c.9419,.3915,1.8824,.8098,2.825,1.2295,3.357,1.4941,6.8285,3.0394,10.4336,3.3005,10.6461,.7749,21.3764-2.4128,34.7108-10.3015,.163-.0965,.3215-.1848,.4853-.2826,.2445-.146,.5176-.2841,.8059-.4169,.949-1.5912,1.7894-3.2674,2.5087-5.021l.1385-.3378-17.6332-7.0542c-2.7518,7.0239-9.5852,12.0014-17.585,12.0014Z" style="fill: #fff;"/>
  </a>
</svg>