<?xml version="1.0" encoding="UTF-8"?>
<svg id="Layer_1" data-name="Layer 1" xmlns="http://www.w3.org/2000/svg" xmlns:xlink="http://www.w3.org/1999/xlink" viewBox="0 0 277.9197 94.6528">
  <g id="logoMark">
    <a xlink:href="81.6270588235294">
      <path id="logoMark__PathItem_" data-name="logoMark &amp;lt;PathItem&amp;gt;" d="M277.8292,89.696c-.2854-2.1827-7.3054-8.9935-8.7971-9.6026-1.2655-.5168-2.0251-1.3817-2.8298-2.2972-.8353-.951-1.7001-1.9346-3.1522-2.6176-5.929-2.7864-10.7628-2.8779-14.647-2.951-2.9218-.0551-5.2288-.0986-7.2362-1.174-7.6383-4.0919-10.7177-4.8879-17.4635-6.6317-1.2189-.3148-2.5585-.6614-4.0693-1.0645-1.9431-.5186-4.4338-1.5164-5.3093-2.4816-.513-.566-1.4626-1.3641-2.3805-2.1357-.7546-.6342-1.5355-1.2902-1.9453-1.7145-2.6686-2.7623-10.0106-2.2338-13.829-.4738-.2883,.1329-.5614,.2709-.806,.4169-.1638,.0978-.3223,.1862-.4853,.2826-13.3344,7.8887-24.0647,11.0764-34.7108,10.3015-3.605-.2611-7.0765-1.8064-10.4336-3.3005-.9426-.4197-1.8831-.8381-2.825-1.2295l-13.4334-5.5819-1.1715-.4868-11.9626-4.9708c-2.6236-1.0903-5.3365-2.2177-8.2548-2.6172-5.4546-.7479-10.8339,1.1454-15.58,2.8147l-37.7495,13.2805c-.5536,.195-1.1326,.4091-1.729,.6302-3.067,1.1356-6.5452,2.423-9.4139,2.0965-1.9908-.2265-3.6817-1.1475-5.4719-2.1226-1.8315-.9977-3.7259-2.0297-5.9951-2.2894-6.8381-.779-15.2003,5.1578-22.5736,10.3993-4.0279,2.8635-7.8326,5.5679-10.9009,6.8391-.0272,.0114-2.7172,1.5012-2.6727,2.3741l.0399,.5258,.489,.1465c3.5838,1.0744,8.2247-.1854,12.3187-1.2976,3.2164-.8745,6.2545-1.699,7.6835-1.0444,.4653,.2134,.9288,.4374,1.3927,.6617,1.817,.879,3.6958,1.788,5.7682,2.0809,2.0622,.2903,4.3555,.1279,7.0129-.4996,9.3144-2.1982,13.4727-.6699,19.2275,1.4464,.637,.2343,1.2917,.4749,1.9728,.718l.2325,.083c1.954,.6981,4.6306,1.6541,6.7228,1.7435,2.3491,.0961,4.1046-.7769,5.9584-1.7068,.637-.3194,1.2955-.6501,1.9947-.9468,11.2479-4.7776,22.9045-4.9179,31.9811-.3844,.5493,.2745,1.0856,.5455,1.6128,.8119,3.8842,1.9633,7.2391,3.6588,11.6814,4.6356,4.1406,.9108,8.4922,.5179,12.6992,.1392,3.6224-.3257,7.3687-.6628,10.8834-.1442,1.5559,.2304,3.1252,.6996,4.6426,1.1539,2.2236,.6657,4.5222,1.3539,6.924,1.3539h.0318c3.8771-.0099,7.3585-1.7834,10.7254-3.4994,1.4887-.7585,3.0284-1.5428,4.5652-2.1519,11.9697-4.7451,25.7377,.3865,35.0534,4.6586,2.8822,1.3213,6.0626,2.7805,9.2804,2.7805,.9207,0,1.8449-.1194,2.7656-.3958,.7604-.2289,1.4726-.556,2.1616-.8726,.7468-.3434,1.452-.6671,2.1925-.8627,2.0548-.5419,6.5402-.0325,9.5073,.3066,.8768,.0997,1.6619,.1887,2.283,.2424,3.605,.3123,5.0267-1.2019,6.6688-2.9539,1.4118-1.5061,3.1656-3.3772,7.0157-4.7762,2.3063-.1325,6.4364,.915,11.2003,2.1279,7.1967,1.8333,16.1562,4.1141,22.5425,3.0352l.6875-.1166-.0905-.691Z" style="fill: #2f2f2f;"/>
    </a>
    <a xlink:href="1.4210854715202e-14">
      <path id="logoMark__PathItem_-2" data-name="logoMark &amp;lt;PathItem&amp;gt;" d="M110.9573,55.3983c1.0118,.0095,2.0238,.2722,2.921,.7462,1.0374,.5479,.8721,2.1007-.2436,2.4631-2.2259,.7231-4.2233,2.162-5.5861,4.0649-.2204,.3078-.0079,.7402,.3703,.7546,5.1468,.1974,10.4867,.2477,15.2012-1.5894,1.025-.3995,2.2112-.2701,3.0244,.4709,.943,.8593,2.3333,1.3545,3.5747,1.8163,7.0624,2.6276,12.9426,7.7349,17.946,13.3694,.6914,.7785,1.3753,1.5747,2.2,2.2102,.7689,.5924,1.6448,1.0325,2.5433,1.3997,3.5808,1.4636,6.8542,1.6798,10.8287,1.343,1.2126-.1347,2.4325-.4486,2.4252-.8757-.0108-.6253,.0144-.9124-.5734-1.1263-4.9075-1.786-12.1943-3.8919-14.058-8.3079,8.3013-.2104,15.5842,5.7934,23.84,6.6863,8.271-1.4055,4.0495-2.4834-2.9352-3.6065-1.6626-.2674-3.3393-.3374-5.0113-.5375-2.708-.324-5.2889-1.6226-7.163-3.6039-.6997-.7397-1.3071-1.563-1.9944-2.3129-3.1839-.5563-6.1954-1.8861-9.1204-3.1884-.932-.4144-1.8612-.8285-2.7925-1.2153l-26.5676-11.0395c-2.5384-1.0546-5.1634-2.1456-7.8958-2.5197-.3389-.0463-.6781-.08-1.0176-.1049-.5338,.9063-.8389,2.0551-1.1117,3.1665-.1913,.7795,.3934,1.5293,1.1959,1.5369Z" style="fill: #fff;"/>
    </a>
    <a xlink:href="1.4210854715202e-14">
      <path id="logoMark__PathItem_-3" data-name="logoMark &amp;lt;PathItem&amp;gt;" d="M206.3393,58.663c2.063,.8812,3.5865,4.0888,1.1894,5.0879-.9961,.4151-2.1651,.2217-3.0043-.4569-1.1711-.9471-3.9187-1.8274-4.7922-.2235-.3062,.5622-.242,1.2471-.3909,1.8698-.2372,.9914-1.0245,1.9128-.7879,2.9044,.3454,1.4475,2.5063,1.6866,3.1289,3.0383,.3897,.8461,.0862,1.971,.7111,2.6618,.5095,.5631,1.3779,.5487,2.1023,.7764,1.1595,.3645,1.9731,1.3751,2.7702,2.2927,3.371,3.8802,7.688,6.9325,12.4701,8.8169,1.6239,.64,3.3307,1.1642,4.8174,2.0517,.3123,.1865,.6768-.1364,.5339-.4709-1.5167-3.5506-2.4498-6.7323-4.4397-10.0425-2.0432-8.6263,8.2337-3.1049,13.0041-3.212,5.8342-.1309,10.0083,2.0263,15.828,1.5952,2.4252-.1796,2.1827-.7437,2.6624-.4274,.2884,.1902,1.2337,.5143,1.4124,.6954,.8608,.8718,8.3798,5.5159,8.9974,6.574,4.1371,7.0882,10.5278,5.542,14.3633,7.6604-.4336-1.1661-4.0655-4.1061-5.0406-5.5473-1.444-1.4381-2.817-2.6407-3.3892-2.8742-1.5806-.6458-2.4907-1.6806-3.3697-2.6815-.7723-.8786-1.5015-1.7085-2.6815-2.2632-5.6492-2.6554-10.117-2.7395-14.0584-2.814-2.9931-.0562-5.5778-.1049-7.8927-1.3454-7.4842-4.0096-10.5106-4.7921-17.142-6.506-1.2217-.3158-2.5656-.6631-4.0799-1.0673-.7426-.1982-4.5229-1.2697-6.0082-2.9076-.4473-.4936-1.3588-1.2595-2.2399-2-.8189-.6886-1.5927-1.339-2.0541-1.817-1.3843-1.4321-4.6005-1.7318-7.6177-1.3618,.9399,1.3365,3.5191,1.362,4.998,1.9937Z" style="fill: #fff;"/>
    </a>
    <a xlink:href="1.4210854715202e-14">
      <path id="logoMark__PathItem_-4" data-name="logoMark &amp;lt;PathItem&amp;gt;" d="M22.8666,72.5149c1.4047-.9497,2.6361-2.1931,4.2034-2.8404,3.3115-1.3676,7.0084,.2565,10.3495,1.55,6.5139,2.5218,13.4938,3.8342,20.4788,3.8506-3.3638-1.9747-6.8381-3.7476-10.3514-5.4445-.0314-.0032-.0641-.0011-.0955-.0047-2.2717-.2586-4.1675-1.291-6.0007-2.2897-1.7888-.9744-3.4782-1.8947-5.4676-2.1222-5.475-.6264-12.3338,3.6629-18.7417,8.1418,1.7603,.7087,4.6044-.1507,5.6252-.8409Z" style="fill: #fff;"/>
    </a>
    <a xlink:href="71.9654901960784">
      <path id="logoMark__PathItem_-5" data-name="logoMark &amp;lt;PathItem&amp;gt;" d="M163.599,56.1402c-10.4279,0-18.8831-8.4553-18.8831-18.8831s8.4553-18.8846,18.8831-18.8846c8.2726,0,15.2983,5.3222,17.8522,12.7274l17.4232-7.4263-.1328-.3293C192.9977,9.1631,179.3993,0,164.098,0c-20.6007,0-37.3608,16.7597-37.3608,37.3604,0,7.1815,2.0413,13.893,5.5673,19.5937l1.1715,.4868,13.4334,5.5819c.9419,.3915,1.8824,.8098,2.825,1.2295,3.357,1.4941,6.8285,3.0394,10.4336,3.3005,10.6461,.7749,21.3764-2.4128,34.7108-10.3015,.163-.0965,.3215-.1848,.4853-.2826,.2445-.146,.5176-.2841,.8059-.4169,.949-1.5912,1.7894-3.2674,2.5087-5.021l.1385-.3378-17.6332-7.0542c-2.7518,7.0239-9.5852,12.0014-17.585,12.0014Z" style="fill: #484848;"/>
    </a>
    <a xlink:href="18.3058823529412">
      <path id="logoMark__PathItem_-6" data-name="logoMark &amp;lt;PathItem&amp;gt;" d="M163.599,18.3725c-10.4279,0-18.8831,8.4553-18.8831,18.8846s8.4553,18.8831,18.8831,18.8831c7.9998,0,14.8332-4.9774,17.585-12.0014,.8357-2.1331,1.2996-4.4526,1.2996-6.8818,0-2.1567-.3665-4.2266-1.0323-6.1571-2.5539-7.4052-9.5796-12.7274-17.8522-12.7274Z" style="fill: #d1d1d1;"/>
    </a>
  </g>
</svg>